<?xml version="1.0" encoding="utf-8"?>
<!-- Generator: Adobe Illustrator 24.3.0, SVG Export Plug-In . SVG Version: 6.00 Build 0)  -->
<svg version="1.1" id="Camada_1" xmlns="http://www.w3.org/2000/svg" xmlns:xlink="http://www.w3.org/1999/xlink" x="0px" y="0px"
	 viewBox="0 0 89.15 89.15" style="enable-background:new 0 0 89.15 89.15;" xml:space="preserve">
<g>
	<path d="M29.4,56.99c0.24,1.18,0.42,2.27,0.7,3.33c0.06,0.23,0.41,0.46,0.67,0.53c0.32,0.09,0.68,0.03,1.03,0.03
		c14.89,0,29.77,0,44.66,0c1.92,0,3.16,1,3.48,2.78c0.31,1.71-0.9,3.42-2.62,3.7c-0.29,0.05-0.6,0.06-0.89,0.06
		c-15.65,0-31.29,0-46.94,0c-1.88,0-3.53-0.5-4.55-2.2c-0.36-0.6-0.64-1.29-0.78-1.97c-1.47-6.99-2.91-13.99-4.36-20.98
		c-1.21-5.83-2.42-11.65-3.63-17.47c-0.86-4.14-1.71-8.28-2.56-12.42c-0.19-0.91-0.24-0.96-1.18-0.96c-3,0-5.99,0.01-8.99,0
		c-1.61-0.01-2.73-0.75-3.18-2.25c-0.69-2.3,0.89-4.22,2.92-4.22c3.8,0,7.61,0.05,11.41-0.02c2.38-0.05,4.3,1.62,4.77,3.72
		c0.41,1.86,0.78,3.73,1.15,5.6c0.21,1.01,0.27,1.07,1.32,1.07c20.83,0,41.66,0,62.49,0.02c0.77,0,1.57,0.12,2.3,0.36
		c1.51,0.52,2.33,1.85,2.4,3.44c0.09,2.15-0.53,4.18-0.95,6.24c-1.84,9.09-3.74,18.18-5.62,27.26c-0.6,2.89-2.38,4.36-5.33,4.36
		c-15.6,0-31.2,0-46.8,0C30.06,56.99,29.79,56.99,29.4,56.99z M22.16,21.85c0.02,0.2,0.02,0.31,0.05,0.42
		c0.8,3.92,1.59,7.84,2.4,11.76c1.05,5.1,2.11,10.2,3.16,15.3c0.22,1.05,0.34,1.17,1.4,1.17c4.7,0,9.4,0,14.1,0
		c10.76,0,21.52,0,32.28,0.01c0.61,0,0.87-0.13,1-0.78c0.86-4.35,1.77-8.69,2.67-13.03c0.8-3.85,1.61-7.7,2.41-11.55
		c0.23-1.09,0.43-2.18,0.65-3.31C62.21,21.85,42.22,21.85,22.16,21.85z"/>
	<path d="M35.23,84.21c-3.73,0.37-6.42-3.43-6.34-6.37c0.11-3.66,2.8-6.53,6.36-6.54c3.58-0.01,6.36,2.89,6.42,6.55
		C41.72,80.88,39.02,84.59,35.23,84.21z"/>
	<path d="M69.11,84.21c-3.57,0.39-6.45-3.24-6.36-6.42c0.11-3.63,2.85-6.49,6.42-6.48c3.52,0.01,6.4,2.97,6.39,6.54
		C75.54,81.03,72.83,84.59,69.11,84.21z"/>
</g>
</svg>
