<?xml version="1.0" encoding="utf-8"?>
<!-- Generator: Adobe Illustrator 24.3.0, SVG Export Plug-In . SVG Version: 6.00 Build 0)  -->
<svg version="1.1" id="Camada_1" xmlns="http://www.w3.org/2000/svg" xmlns:xlink="http://www.w3.org/1999/xlink" x="0px" y="0px"
	 viewBox="0 0 89.15 89.15" style="enable-background:new 0 0 89.15 89.15;" xml:space="preserve">
<style type="text/css">
	.st0{fill:#010202;}
	.st1{fill:#FFFFFF;}
</style>
<g id="Grupo_237" transform="translate(8.756 5.756)">
	<g id="Grupo_6" transform="translate(0.244 0.245)">
		<g transform="matrix(1, 0, 0, 1, -9, -6)">
			<circle id="Elipse_1-2" class="st0" cx="44.57" cy="44.57" r="43.7"/>
		</g>
	</g>
	<path id="Caminho_5" class="st1" d="M48.04,14.06c-4.68,0.04-9.12,2.1-12.17,5.65c-3.05-3.55-7.49-5.62-12.17-5.65
		C15.57,13.98,8.92,20.5,8.83,28.63c0,0.1,0,0.2,0,0.31c0,10.22,9.2,18.55,23.12,31.21l3.91,3.54l3.91-3.57
		c13.92-12.63,23.12-20.96,23.12-31.18c0.08-8.13-6.44-14.79-14.57-14.87C48.23,14.06,48.13,14.06,48.04,14.06z M36.14,56.11
		l-0.27,0.27l-0.27-0.27C22.72,44.45,14.24,36.75,14.24,28.93c-0.12-5.1,3.91-9.34,9.01-9.46c0.15,0,0.3,0,0.45,0
		c4.2,0.02,6.15,4.07,9.66,6.38c1.06,0.69,4,0.7,5.06,0c3.5-2.31,5.43-6.37,9.63-6.38c5.1-0.12,9.34,3.91,9.46,9.01
		c0,0.15,0,0.3,0,0.45C57.5,36.75,49.01,44.45,36.14,56.11z"/>
</g>
</svg>
