<?xml version="1.0" encoding="utf-8"?>
<!-- Generator: Adobe Illustrator 24.3.0, SVG Export Plug-In . SVG Version: 6.00 Build 0)  -->
<svg version="1.1" id="Camada_1" xmlns="http://www.w3.org/2000/svg" xmlns:xlink="http://www.w3.org/1999/xlink" x="0px" y="0px"
	 viewBox="0 0 89.15 89.15" style="enable-background:new 0 0 89.15 89.15;" xml:space="preserve">
<style type="text/css">
	.st0{fill:#010202;}
</style>
<path id="Caminho_1" class="st0" d="M44.58,0.87c-24.14,0-43.7,19.57-43.7,43.7s19.57,43.7,43.7,43.7s43.7-19.57,43.7-43.7
	C88.27,20.44,68.71,0.88,44.58,0.87z M44.58,13.98c7.24,0,13.11,5.87,13.11,13.11S51.82,40.2,44.58,40.2s-13.11-5.87-13.11-13.11
	l0,0c-0.01-7.23,5.84-13.1,13.07-13.11C44.55,13.98,44.56,13.98,44.58,13.98z M44.58,76.04c-10.55,0-20.39-5.28-26.22-14.07
	c0.13-8.7,17.48-13.46,26.22-13.46c8.7,0,26.09,4.76,26.22,13.46C64.97,70.76,55.12,76.04,44.58,76.04z"/>
</svg>
